<svg width="18" height="17" viewBox="0 0 18 17" fill="none" xmlns="http://www.w3.org/2000/svg">
<path d="M17.6239 2.65992C17.4169 1.61292 16.8069 0.788331 16.0325 0.508495C14.6288 0 9 0 9 0C9 0 3.37127 0 1.96752 0.508495C1.19308 0.788375 0.583143 1.61292 0.376127 2.65992C0 4.55768 0 8.51718 0 8.51718C0 8.51718 0 12.4767 0.376127 14.3744C0.583143 15.4214 1.19308 16.2117 1.96752 16.4915C3.37127 17 9 17 9 17C9 17 14.6287 17 16.0325 16.4915C16.8069 16.2117 17.4169 15.4214 17.6239 14.3744C18 12.4767 18 8.51718 18 8.51718C18 8.51718 18 4.55768 17.6239 2.65992ZM7.15908 12.1121V4.92225L11.8636 8.51727L7.15908 12.1121Z" fill="white"/>
</svg>
